<?xml version="1.0" standalone="no"?>
<!DOCTYPE svg PUBLIC "-//W3C//DTD SVG 20010904//EN"
 "http://www.w3.org/TR/2001/REC-SVG-20010904/DTD/svg10.dtd">
<svg version="1.0" xmlns="http://www.w3.org/2000/svg"
 width="2744.000000pt" height="2287.000000pt" viewBox="0 0 2744.000000 2287.000000"
 preserveAspectRatio="xMidYMid meet">

<g transform="translate(0.000000,2287.000000) scale(0.100000,-0.100000)"
fill="#052780" stroke="none">
<path d="M23825 22656 c-452 -223 -621 -312 -860 -454 -338 -201 -594 -374
-960 -647 -660 -493 -1217 -981 -1939 -1695 -780 -773 -1506 -1571 -2318
-2547 -296 -356 -760 -934 -754 -940 3 -3 73 0 156 6 369 27 940 9 1592 -50
130 -12 243 -19 251 -16 8 3 99 109 203 236 104 126 190 229 191 227 1 -1 -33
-112 -76 -246 -43 -135 -76 -247 -74 -249 1 -2 99 -17 215 -32 117 -15 348
-46 513 -68 793 -107 1930 -237 1940 -221 2 3 36 118 75 255 566 1979 1115
3684 1632 5065 114 305 463 1186 597 1508 16 39 29 72 28 71 -1 0 -186 -92
-412 -203z"/>
<path d="M12610 21930 c-100 -31 -516 -143 -610 -164 -472 -104 -908 -141
-1830 -156 -830 -13 -1268 -39 -1840 -106 -2541 -299 -4465 -1192 -5660 -2629
-640 -769 -1015 -1582 -1131 -2450 -26 -198 -36 -571 -20 -770 44 -550 206
-1028 496 -1465 341 -516 734 -785 1206 -829 552 -51 1044 268 1175 764 23 86
27 121 27 245 0 130 -2 154 -27 235 -66 218 -192 424 -436 715 -346 413 -542
740 -628 1048 -25 90 -27 111 -27 282 1 347 77 644 251 978 138 266 305 485
573 752 888 884 2180 1487 3714 1735 403 65 1052 125 1351 125 l94 0 -4 -37
c-2 -21 -15 -159 -29 -308 -132 -1401 -391 -2884 -760 -4365 -562 -2249 -1223
-4020 -1958 -5245 -827 -1379 -1715 -2274 -2590 -2609 -225 -86 -402 -124
-622 -133 -231 -9 -451 18 -915 113 -494 102 -737 134 -1019 134 -335 0 -580
-59 -811 -196 -278 -165 -477 -420 -547 -700 -26 -106 -24 -332 5 -449 92
-371 436 -703 896 -864 303 -106 631 -148 1086 -138 555 12 1050 99 1612 283
717 235 1336 560 1905 1001 727 563 1507 1432 2090 2328 1097 1688 2097 4406
2677 7277 34 169 64 309 67 312 2 3 213 -2579 467 -5737 255 -3158 466 -5757
470 -5776 7 -32 44 25 859 1315 468 742 977 1552 1130 1799 583 938 1221 1935
1666 2600 92 137 105 161 90 167 -118 48 -235 103 -302 144 -329 195 -613 499
-787 841 l-52 102 -254 -389 c-139 -214 -255 -389 -258 -390 -7 0 -735 8520
-757 8850 -13 201 -14 303 -4 710 26 1082 25 1060 10 1059 -8 0 -25 -4 -39 -9z"/>
<path d="M26425 16251 c-129 -33 -219 -68 -485 -183 -648 -283 -1272 -439
-1958 -489 -212 -15 -944 -6 -1257 15 -856 60 -1690 150 -2969 321 -709 95
-1059 132 -1566 167 -96 6 -366 12 -600 12 -351 1 -451 -2 -575 -17 -883 -107
-1565 -419 -2144 -982 -479 -466 -736 -959 -823 -1575 -17 -127 -17 -573 0
-700 58 -408 180 -719 390 -989 236 -304 553 -515 897 -596 376 -90 734 -42
1021 136 48 30 131 96 184 147 147 139 233 274 287 449 25 82 27 101 27 273 1
163 -2 195 -22 269 -50 184 -131 317 -284 468 -138 136 -262 235 -547 438
-285 203 -345 432 -161 613 118 116 272 179 517 212 123 16 371 14 493 -5 269
-41 730 -141 1255 -271 2002 -499 3357 -647 4704 -513 57 5 106 8 108 5 6 -6
-189 -214 -603 -646 -337 -352 -1055 -1068 -1384 -1380 -279 -265 -4499 -4160
-4995 -4610 -1438 -1304 -2383 -2180 -3535 -3275 -1016 -965 -1450 -1367
-1975 -1825 -354 -309 -482 -454 -594 -677 -70 -140 -94 -237 -94 -383 -1
-109 3 -135 26 -205 53 -160 159 -279 320 -360 140 -69 231 -89 397 -83 177 7
297 34 660 153 435 142 719 200 1265 259 519 57 1018 87 1745 107 469 13 2085
6 2555 -10 1384 -50 2301 -117 3545 -261 1565 -181 2477 -249 2975 -222 443
25 781 87 1170 217 378 126 677 272 1020 500 805 535 1254 1206 1349 2017 63
535 -15 918 -250 1231 -80 107 -220 240 -326 310 -242 160 -477 224 -783 214
-225 -7 -391 -52 -572 -153 -222 -124 -444 -364 -538 -581 -65 -151 -80 -228
-80 -418 0 -161 2 -176 32 -285 31 -112 75 -231 166 -455 86 -208 114 -365 97
-534 -19 -183 -71 -300 -180 -402 -143 -134 -384 -200 -730 -200 -181 0 -311
15 -540 62 -332 69 -732 179 -1230 339 -1633 526 -2830 767 -4220 851 -258 16
-931 16 -1145 1 -786 -57 -1786 -214 -2865 -451 -74 -16 -136 -28 -138 -27 -4
5 185 190 1783 1751 l1370 1338 3570 3342 c1964 1838 3631 3397 3705 3466 428
392 918 824 1350 1190 250 211 387 324 910 751 620 505 1001 893 1173 1193
166 289 148 516 -57 721 -177 178 -365 255 -618 254 -90 -1 -135 -7 -223 -29z"/>
<path d="M16376 13949 c-161 -24 -283 -77 -314 -135 -9 -16 -7 -27 8 -52 21
-34 61 -66 358 -289 101 -76 195 -147 209 -158 l25 -20 22 29 c11 15 110 147
219 293 108 145 197 268 197 272 0 4 -69 20 -152 36 -127 24 -183 29 -333 31
-99 1 -207 -2 -239 -7z"/>
<path d="M18452 13539 c-6 -19 -178 -632 -382 -1364 -403 -1444 -442 -1581
-591 -2090 -184 -625 -395 -1302 -559 -1789 -38 -115 -68 -211 -66 -213 3 -3
3502 3223 3735 3443 l83 79 217 765 217 765 -45 7 c-26 4 -165 19 -311 33
-592 57 -1295 174 -1984 331 -333 76 -302 73 -314 33z"/>
<path d="M18843 7034 c-439 -411 -806 -755 -817 -764 -18 -17 -9 -18 225 -19
381 -2 709 -23 1384 -91 954 -96 1540 -126 1945 -101 366 23 1076 114 1091
141 8 14 309 1279 309 1297 0 5 -134 -12 -297 -39 -945 -152 -1576 -182 -2328
-113 -280 26 -767 94 -782 109 -3 3 12 77 34 166 23 88 39 160 37 160 -1 0
-362 -336 -801 -746z"/>
</g>
</svg>
